<?xml version="1.0" encoding="UTF-8" standalone="no"?>
<svg
   xmlns:dc="http://purl.org/dc/elements/1.1/"
   xmlns:cc="http://creativecommons.org/ns#"
   xmlns:rdf="http://www.w3.org/1999/02/22-rdf-syntax-ns#"
   xmlns:svg="http://www.w3.org/2000/svg"
   xmlns="http://www.w3.org/2000/svg"
   id="svg8"
   version="1.1"
   viewBox="0 0 338.46655 92.749512"
   height="92.749512mm"
   width="338.46655mm">
  <defs
     id="defs2" />
  <metadata
     id="metadata5">
    <rdf:RDF>
      <cc:Work
         rdf:about="">
        <dc:format>image/svg+xml</dc:format>
        <dc:type
           rdf:resource="http://purl.org/dc/dcmitype/StillImage" />
        <dc:title></dc:title>
      </cc:Work>
    </rdf:RDF>
  </metadata>
  <g
     transform="translate(-70.915186,24.890284)"
     id="layer1">
    <text
       id="text4542"
       y="55.662201"
       x="34.962795"
       style="font-style:normal;font-weight:normal;font-size:10.58333302px;line-height:1.25;font-family:sans-serif;letter-spacing:0px;word-spacing:0px;fill:#000000;fill-opacity:1;stroke:none;stroke-width:0.26458332"
       xml:space="preserve"><tspan
         style="stroke-width:0.26458332"
         y="65.02597"
         x="34.962795"
         id="tspan4540" /></text>
    <g
       id="text3715-1-5-9-7-8"
       style="font-style:normal;font-variant:normal;font-weight:normal;font-stretch:normal;font-size:10.58333302px;line-height:1.25;font-family:Noam;-inkscape-font-specification:Noam;letter-spacing:0px;word-spacing:0px;fill:#42a5f5;fill-opacity:1;stroke:none;stroke-width:0.26458332"
       aria-label="10speed">
      <path
         id="path997"
         style="font-style:normal;font-variant:normal;font-weight:normal;font-stretch:normal;font-size:90.31111145px;font-family:LeckerliOne;-inkscape-font-specification:LeckerliOne;fill:#42a5f5;fill-opacity:1;stroke-width:0.26458332"
         d="m 92.409231,-20.284417 c -5.779912,1.715911 -11.017956,6.592711 -11.017956,12.5532444 0,0.7224889 0.09031,2.1674667 0.8128,2.1674667 2.709333,0 7.224889,-4.4252445 14.178844,-6.4120891 l 3.2512,-0.8128 c -4.696177,12.73386688 -10.5664,35.131023 -10.5664,44.884623 v 1.444977 c -10.837333,0.451556 -18.152533,6.231467 -18.152533,10.385778 0,0.541867 0.361244,0.903111 0.903111,0.903111 4.244622,0 10.927645,-2.348089 20.771556,-2.348089 2.889955,0 16.888177,0.632178 18.875027,0.632178 2.16746,0 3.16088,-0.993422 3.88337,-3.341511 0.45156,-1.444978 1.44498,-3.612444 1.44498,-4.334933 0,-2.619023 -4.96711,-1.715911 -14.08853,-1.896534 1.44498,-20.049066 9.66329,-45.245866 9.66329,-53.193244 0,-2.4384 -2.16747,-4.8768 -2.98027,-4.8768 -4.33493,0 -12.462934,2.889955 -16.978489,4.244622 z" />
      <path
         id="path999"
         style="font-size:90.31111145px;letter-spacing:0.79374999px;fill:#42a5f5;fill-opacity:1"
         d="m 158.8782,-24.890284 c -20.86187,0 -33.05387,22.3068448 -33.05387,41.001245 0,18.784711 11.74045,27.6352 24.56462,27.6352 17.61067,0 32.512,-12.914489 32.512,-37.208178 0,-15.7141334 -9.93422,-19.236267 -14.54008,-19.236267 -1.35467,0 -2.25778,0.361245 -2.25778,0.993423 0,4.5155551 8.9408,4.6058662 8.9408,16.9784885 0,16.4366225 -11.19858,26.4611555 -20.95218,26.4611555 -7.49582,0 -14.08853,-5.870222 -14.08853,-19.055644 0,-13.27573379 6.41209,-28.899556 18.15253,-28.899556 7.13458,0 9.66329,1.6256 14.35947,1.6256 1.53529,0 2.70933,-0.180622 2.70933,-0.993422 0,-4.064 -5.50898,-9.302045 -16.34631,-9.302045 z" />
      <path
         id="path1001"
         style="font-style:normal;font-variant:normal;font-weight:normal;font-stretch:normal;font-size:90.31111145px;font-family:LeckerliOne;-inkscape-font-specification:LeckerliOne;fill:#42a5f5;fill-opacity:1;stroke-width:0.26458332"
         d="m 223.52176,7.5314052 c 0,-4.7864889 -3.97369,-8.2183111 -11.92107,-8.2183111 -7.94738,0 -15.62382,5.0574222 -15.62382,13.9982219 0,10.295467 11.19858,13.095112 14.17884,22.306845 -16.61724,0 -11.3792,-14.178845 -17.0688,-14.178845 -3.07057,0 -6.68302,5.418667 -6.68302,10.927645 0,5.6896 4.78649,11.469511 16.79787,11.469511 11.65013,0 18.33315,-4.605867 18.33315,-12.643556 0,-4.064 -3.43182,-7.766755 -6.86364,-11.3792 4.8768,-1.6256 8.85049,-5.6896 8.85049,-12.2823108 z m -16.61725,0.4515556 c 0,0 2.88996,-0.9031111 4.33494,-0.9031111 2.61902,0 3.52213,1.3546667 3.52213,2.7996444 0,1.8965329 -1.98684,4.4252449 -3.61244,6.2314669 -2.4384,-2.619022 -4.24463,-5.328356 -4.24463,-8.1280002 z" />
      <path
         id="path1003"
         style="font-style:normal;font-variant:normal;font-weight:normal;font-stretch:normal;font-size:90.31111145px;font-family:LeckerliOne;-inkscape-font-specification:LeckerliOne;fill:#42a5f5;fill-opacity:1;stroke-width:0.26458332"
         d="m 256.21429,-0.05472812 c -5.50897,0 -9.21173,2.16746672 -12.01137,5.32835562 -0.99343,-2.7996445 -3.70276,-7.224889 -6.59272,-7.224889 -1.17404,0 -2.70933,0.5418667 -3.52213,2.52871116 C 223.16043,26.045183 220.81234,50.700117 220.81234,59.460294 c 0,1.986845 0.54186,3.341511 1.71591,4.696178 0.90311,1.083733 3.07058,3.702756 5.59929,3.702756 1.35466,0 2.61902,-1.354667 3.2512,-2.528711 0.99342,-1.896534 3.2512,-20.952178 5.77991,-35.582578 0.8128,-4.8768 2.88995,-8.9408 4.69618,-12.282311 2.61902,-4.876801 6.77333,-7.8570672 10.11484,-7.8570672 2.98027,0 5.14773,2.5287112 5.14773,5.1477332 0,10.114845 -4.51555,18.965334 -14.54008,18.965334 0,0 -0.8128,1.896533 -0.8128,3.612444 0,5.147733 5.50897,6.953956 11.74044,6.953956 4.51556,0 9.39236,-0.451556 12.82418,-1.806223 8.30862,-3.160889 14.99164,-10.476089 14.99164,-17.159111 0,-2.077155 -0.36124,-3.2512 -1.26435,-3.2512 -0.72249,0 -1.89654,0.8128 -3.2512,2.619022 -2.25778,2.980267 -10.38578,11.921067 -20.68125,11.921067 h -1.08373 c 8.48924,-3.2512 15.26258,-13.636978 15.26258,-22.939022 0,-7.4958224 -4.064,-13.72728912 -14.08854,-13.72728912 z" />
      <path
         id="path1005"
         style="font-style:normal;font-variant:normal;font-weight:normal;font-stretch:normal;font-size:90.31111145px;font-family:LeckerliOne;-inkscape-font-specification:LeckerliOne;fill:#42a5f5;fill-opacity:1;stroke-width:0.26458332"
         d="m 297.84766,33.270072 c -3.34152,0 -8.66987,-1.083733 -8.66987,-6.050844 V 24.96145 c 9.57298,-4.425245 21.1328,-5.870222 21.1328,-16.5269336 0,-5.0574223 -3.70276,-8.66986674 -10.47609,-8.66986674 -12.55324,0 -23.93244,12.55324434 -23.93244,29.80266634 0,9.843912 7.85706,14.088534 15.98506,14.088534 20.68125,0 27.18365,-13.366045 27.18365,-18.423467 0,-2.077155 -0.36125,-3.160889 -1.26436,-3.160889 -2.07715,0 -8.03769,11.198578 -19.95875,11.198578 z M 296.31237,7.8023386 c 1.89653,0 2.79964,0.9031111 2.79964,2.2577774 0,3.702756 -4.24462,5.328356 -9.30204,8.669867 0.90311,-5.6896 2.88995,-10.9276444 6.5024,-10.9276444 z" />
      <path
         id="path1007"
         style="font-style:normal;font-variant:normal;font-weight:normal;font-stretch:normal;font-size:90.31111145px;font-family:LeckerliOne;-inkscape-font-specification:LeckerliOne;fill:#42a5f5;fill-opacity:1;stroke-width:0.26458332"
         d="m 335.59762,33.270072 c -3.34151,0 -8.66986,-1.083733 -8.66986,-6.050844 V 24.96145 c 9.57298,-4.425245 21.1328,-5.870222 21.1328,-16.5269336 0,-5.0574223 -3.70276,-8.66986674 -10.47609,-8.66986674 -12.55325,0 -23.93245,12.55324434 -23.93245,29.80266634 0,9.843912 7.85707,14.088534 15.98507,14.088534 20.68125,0 27.18365,-13.366045 27.18365,-18.423467 0,-2.077155 -0.36125,-3.160889 -1.26436,-3.160889 -2.07716,0 -8.03769,11.198578 -19.95876,11.198578 z M 334.06234,7.8023386 c 1.89653,0 2.79964,0.9031111 2.79964,2.2577774 0,3.702756 -4.24462,5.328356 -9.30204,8.669867 0.90311,-5.6896 2.88995,-10.9276444 6.5024,-10.9276444 z" />
      <path
         id="path1009"
         style="font-style:normal;font-variant:normal;font-weight:normal;font-stretch:normal;font-size:90.31111145px;font-family:LeckerliOne;-inkscape-font-specification:LeckerliOne;fill:#42a5f5;fill-opacity:1;stroke-width:0.26458332"
         d="m 382.10777,0.48713855 c -1.80622,-0.45155556 -3.79306,-0.54186667 -5.41866,-0.54186667 -7.49583,0 -13.99823,4.69617782 -18.15254,9.66328892 -4.60586,5.5992892 -6.68302,13.0951112 -6.68302,19.9587552 0,8.669867 5.77991,14.269156 14.17884,14.269156 8.21832,0 12.91449,-3.612444 16.07538,-8.579556 0.99342,4.967112 3.07058,8.128 6.5024,8.128 9.48267,0 20.77156,-10.295466 20.77156,-18.152533 0,-2.077155 -0.72249,-3.431822 -1.6256,-3.431822 -1.6256,0 -10.02454,11.198578 -13.72729,11.198578 -1.44498,0 -2.07716,-2.4384 -2.07716,-6.231467 0,-5.508978 1.98685,-19.2362668 4.24463,-27.36426679 3.2512,-4.69617781 6.5024,-8.39893341 6.68302,-14.99164421 0,-2.077156 -2.98027,-8.669867 -6.77334,-8.669867 -4.51555,0 -9.03111,11.198578 -11.92106,25.2871112 z m -0.8128,23.48088945 c -2.25778,7.3152 -6.95395,10.205155 -11.01795,10.205155 -4.064,0 -5.14774,-3.431822 -5.14774,-6.953955 0,-12.101689 9.30205,-19.5072005 18.06223,-21.1328005 -1.08374,6.0508445 -1.80623,12.2823115 -1.89654,17.8816005 z" />
    </g>
  </g>
</svg>
