<svg id="Layer_1" data-name="Layer 1" xmlns="http://www.w3.org/2000/svg" viewBox="0 0 672 140"><defs><style>.cls-1{fill:none;}.cls-2{fill:#de4317;}</style></defs><title>Customer Journey Logo - long orange</title><rect class="cls-1" y="-1" width="674" height="142"/><path class="cls-2" d="M171.77,106.49c-1.66.83-5.4,1.72-10.27,1.72-13.83,0-21-8.6-21-20,0-13.66,9.74-21.26,21.85-21.26a23.67,23.67,0,0,1,9.86,1.78l-1.84,7.19a19.41,19.41,0,0,0-7.6-1.49c-7.19,0-12.77,4.34-12.77,13.24,0,8,4.75,13.06,12.83,13.06a22.68,22.68,0,0,0,7.54-1.3Z"/><path class="cls-2" d="M203.59,98.3c0,3.8.12,6.89.24,9.32H196l-.42-4.1h-.18a10.34,10.34,0,0,1-9.08,4.75c-5.88,0-10.21-3.68-10.21-12.64v-17h9.08V94.2c0,4.22,1.37,6.77,4.51,6.77a4.84,4.84,0,0,0,4.51-3.15,4.94,4.94,0,0,0,.3-1.95V78.59h9.08Z"/><path class="cls-2" d="M210.78,99.72a17.6,17.6,0,0,0,7.77,2.2c2.74,0,3.86-1,3.86-2.43s-.89-2.2-4.27-3.33c-6-2-8.31-5.28-8.25-8.73,0-5.4,4.63-9.5,11.81-9.5a19.52,19.52,0,0,1,8.2,1.67l-1.61,6.23A14.26,14.26,0,0,0,222,84.17c-2.2,0-3.45.89-3.45,2.37s1.13,2.08,4.7,3.33c5.52,1.9,7.83,4.69,7.89,9,0,5.41-4.27,9.38-12.59,9.38a20.67,20.67,0,0,1-9.38-2Z"/><path class="cls-2" d="M246.7,70.28v8.31h6.47v6.65H246.7V95.75c0,3.5.83,5.1,3.56,5.1a14.52,14.52,0,0,0,2.67-.24l.06,6.83a17.58,17.58,0,0,1-5.88.77,9.37,9.37,0,0,1-6.77-2.49c-1.66-1.72-2.49-4.51-2.49-8.61V85.24H234V78.59h3.86v-6.3Z"/><path class="cls-2" d="M286.77,92.78c0,10.63-7.54,15.49-15.32,15.49-8.49,0-15-5.58-15-15s6.18-15.38,15.5-15.38C280.83,77.93,286.77,84.05,286.77,92.78Zm-21,.29c0,5,2.08,8.73,5.94,8.73,3.5,0,5.76-3.5,5.76-8.73,0-4.33-1.66-8.72-5.76-8.72C267.36,84.35,265.75,88.8,265.75,93.07Z"/><path class="cls-2" d="M292.35,87.85c0-3.62-.12-6.71-.24-9.26h7.6l.42,3.92h.18a10.06,10.06,0,0,1,8.78-4.58,8.24,8.24,0,0,1,8,4.93h.12a13,13,0,0,1,3.74-3.5,10.46,10.46,0,0,1,5.52-1.43c5.58,0,9.8,3.92,9.8,12.59v17.1h-8.79V91.83c0-4.22-1.37-6.65-4.27-6.65A4.41,4.41,0,0,0,319,88.32a7.55,7.55,0,0,0-.36,2.32v17h-8.78V91.35c0-3.68-1.31-6.17-4.16-6.17a4.58,4.58,0,0,0-4.21,3.26,6,6,0,0,0-.36,2.26v16.92h-8.79Z"/><path class="cls-2" d="M350.36,96c.29,3.74,4,5.53,8.19,5.53a25.56,25.56,0,0,0,8-1.19l1.19,6.11a28.61,28.61,0,0,1-10.51,1.78c-9.85,0-15.49-5.7-15.49-14.78,0-7.36,4.57-15.5,14.66-15.5,9.38,0,12.94,7.31,12.94,14.49a21.45,21.45,0,0,1-.29,3.56ZM361,89.81c0-2.2-1-5.88-5.1-5.88-3.8,0-5.35,3.45-5.58,5.88Z"/><path class="cls-2" d="M374.76,88.15c0-4.28-.12-7.07-.24-9.56h7.78l.29,5.34h.24a8.55,8.55,0,0,1,7.84-6,9.2,9.2,0,0,1,1.9.12v8.49a13,13,0,0,0-2.44-.23c-3.32,0-5.58,1.78-6.17,4.57a10.46,10.46,0,0,0-.18,2v14.72h-9Z"/><path class="cls-2" d="M417.44,67.6h9V92.9c0,11.4-5.46,15.37-14.25,15.37a23.32,23.32,0,0,1-6.59-1l1-7.3a14.73,14.73,0,0,0,4.63.71c3.8,0,6.17-1.72,6.17-8Z"/><path class="cls-2" d="M462.39,92.78c0,10.63-7.54,15.49-15.32,15.49-8.49,0-15-5.58-15-15s6.17-15.38,15.49-15.38C456.45,77.93,462.39,84.05,462.39,92.78Zm-21,.29c0,5,2.08,8.73,5.94,8.73,3.5,0,5.75-3.5,5.75-8.73,0-4.33-1.66-8.72-5.75-8.72C443,84.35,441.37,88.8,441.37,93.07Z"/><path class="cls-2" d="M495.34,98.3c0,3.8.12,6.89.23,9.32h-7.83l-.42-4.1h-.18a10.32,10.32,0,0,1-9.08,4.75c-5.88,0-10.21-3.68-10.21-12.64v-17h9.08V94.2c0,4.22,1.37,6.77,4.51,6.77A4.86,4.86,0,0,0,486,97.82a5.13,5.13,0,0,0,.29-1.95V78.59h9.09Z"/><path class="cls-2" d="M502.58,88.15c0-4.28-.12-7.07-.24-9.56h7.78l.3,5.34h.23a8.55,8.55,0,0,1,7.84-6,9.2,9.2,0,0,1,1.9.12v8.49a12.83,12.83,0,0,0-2.43-.23c-3.33,0-5.58,1.78-6.18,4.57a10.46,10.46,0,0,0-.18,2v14.72h-9Z"/><path class="cls-2" d="M525.14,87.85c0-3.62-.12-6.71-.24-9.26h7.84l.41,4h.18a10.65,10.65,0,0,1,9-4.64c5.94,0,10.39,3.92,10.39,12.47v17.22h-9V91.53c0-3.74-1.3-6.29-4.57-6.29a4.81,4.81,0,0,0-4.57,3.38,6.19,6.19,0,0,0-.36,2.26v16.74h-9Z"/><path class="cls-2" d="M566.88,96c.29,3.74,4,5.53,8.19,5.53a25.56,25.56,0,0,0,8-1.19l1.19,6.11a28.61,28.61,0,0,1-10.51,1.78c-9.85,0-15.49-5.7-15.49-14.78,0-7.36,4.57-15.5,14.66-15.5,9.38,0,13,7.31,13,14.49a21.19,21.19,0,0,1-.3,3.56Zm10.62-6.17c0-2.2-1-5.88-5.1-5.88-3.8,0-5.35,3.45-5.58,5.88Z"/><path class="cls-2" d="M597.69,78.59,602,92.84c.48,1.72,1.07,3.86,1.43,5.4h.18c.41-1.54.89-3.74,1.3-5.4l3.57-14.25h9.67l-6.76,19.12c-4.16,11.51-6.95,16.14-10.22,19.05a16.57,16.57,0,0,1-8.73,4l-1.89-7.66a11.41,11.41,0,0,0,3.91-1.54,10.34,10.34,0,0,0,3.74-3.62,2.35,2.35,0,0,0,.48-1.31,3.22,3.22,0,0,0-.42-1.48L587.66,78.59Z"/><polygon class="cls-2" points="154.57 57.75 158.38 57.75 161.18 53.52 163.99 57.75 168.21 57.75 163.23 50.61 167.65 44.31 163.57 44.31 161.23 47.82 158.87 44.31 154.65 44.31 159.06 50.68 154.57 57.26 154.57 54.32 144.56 54.32 144.56 49.78 153.55 49.78 153.55 46.6 144.56 46.6 144.56 42.62 154.36 42.62 154.36 39.2 140.48 39.2 140.48 57.75 154.24 57.75 154.57 57.75"/><path class="cls-2" d="M180.37,54.76v-7a3.26,3.26,0,0,0-.55-2,3.58,3.58,0,0,0-1.4-1.15,5.84,5.84,0,0,0-1.9-.57,16.05,16.05,0,0,0-2.05-.14,10.41,10.41,0,0,0-2.23.22,6.82,6.82,0,0,0-2,.73,4.8,4.8,0,0,0-1.46,1.38,4.55,4.55,0,0,0-.65,2.17h3.7a2.11,2.11,0,0,1,.73-1.56,2.78,2.78,0,0,1,1.71-.48,5.46,5.46,0,0,1,.93.08,1.72,1.72,0,0,1,.74.26,1.45,1.45,0,0,1,.53.54,1.91,1.91,0,0,1,.19.94,1,1,0,0,1-.33.88,2.46,2.46,0,0,1-1,.45,8,8,0,0,1-1.44.23l-1.62.21a16,16,0,0,0-1.67.36,4.23,4.23,0,0,0-1.44.66,3.37,3.37,0,0,0-1.05,1.19,3.91,3.91,0,0,0-.4,1.88,4.23,4.23,0,0,0,.35,1.79,3.37,3.37,0,0,0,1,1.25,3.86,3.86,0,0,0,1.46.73,6.72,6.72,0,0,0,1.78.23,8.45,8.45,0,0,0,2.45-.36,4.7,4.7,0,0,0,2.08-1.28,4.91,4.91,0,0,0,.09.67,5.79,5.79,0,0,0,.17.63h3.75a2.82,2.82,0,0,1-.36-1.25A12,12,0,0,1,180.37,54.76Zm-3.7-2.21a8,8,0,0,1-.06.84,2.7,2.7,0,0,1-.35,1,2.5,2.5,0,0,1-.89.88,3.37,3.37,0,0,1-1.69.36,4.71,4.71,0,0,1-.85-.08,2,2,0,0,1-.73-.27,1.44,1.44,0,0,1-.5-.54,1.82,1.82,0,0,1-.18-.83,2,2,0,0,1,.18-.86,1.82,1.82,0,0,1,.48-.55,2.61,2.61,0,0,1,.71-.35,7.58,7.58,0,0,1,.82-.21l.88-.13.84-.13c.27-.05.53-.13.76-.19a1.65,1.65,0,0,0,.58-.34Z"/><path class="cls-2" d="M183.38,56.17a6.3,6.3,0,0,0,2.15,1.42,7.5,7.5,0,0,0,2.77.5,6.73,6.73,0,0,0,4.4-1.41,6.09,6.09,0,0,0,2.08-4.07h-3.57a3.41,3.41,0,0,1-.9,2,2.68,2.68,0,0,1-2,.75,2.52,2.52,0,0,1-1.45-.4,2.84,2.84,0,0,1-1-1,4.66,4.66,0,0,1-.5-1.37,7.45,7.45,0,0,1-.16-1.48,8,8,0,0,1,.16-1.53,4.19,4.19,0,0,1,.54-1.39,3,3,0,0,1,1-1,2.6,2.6,0,0,1,1.48-.4A2.48,2.48,0,0,1,191.08,49h3.62a5.06,5.06,0,0,0-.62-2.24,5.28,5.28,0,0,0-1.42-1.59,6.16,6.16,0,0,0-2-1,8.35,8.35,0,0,0-2.3-.31,7.42,7.42,0,0,0-2.92.54A6.17,6.17,0,0,0,183.31,46,6.27,6.27,0,0,0,182,48.32a9.16,9.16,0,0,0-.46,2.92A7.73,7.73,0,0,0,182,54,6.65,6.65,0,0,0,183.38,56.17Z"/><path class="cls-2" d="M196.31,57.13a3.89,3.89,0,0,0,1.45.73,6.91,6.91,0,0,0,1.79.23,8.45,8.45,0,0,0,2.45-.36,4.7,4.7,0,0,0,2.08-1.28c0,.23,0,.45.09.67a4.17,4.17,0,0,0,.18.63h3.74a3.09,3.09,0,0,1-.37-1.25,13.7,13.7,0,0,1-.1-1.74v-7a3.2,3.2,0,0,0-.55-2,3.51,3.51,0,0,0-1.4-1.15,5.77,5.77,0,0,0-1.9-.57,15.93,15.93,0,0,0-2.05-.14,10.32,10.32,0,0,0-2.22.22,6.78,6.78,0,0,0-2,.73A4.8,4.8,0,0,0,196,46.28a4.44,4.44,0,0,0-.64,2.17h3.69a2.11,2.11,0,0,1,.73-1.56,2.83,2.83,0,0,1,1.72-.48,5.43,5.43,0,0,1,.92.08,1.81,1.81,0,0,1,.75.26,1.5,1.5,0,0,1,.52.54,1.9,1.9,0,0,1,.2.94,1,1,0,0,1-.34.88,2.41,2.41,0,0,1-1,.45,8.19,8.19,0,0,1-1.44.23c-.54.07-1.09.13-1.63.21a15.84,15.84,0,0,0-1.66.36,4.28,4.28,0,0,0-1.45.66,3.37,3.37,0,0,0-1.05,1.19,3.91,3.91,0,0,0-.4,1.88,4.23,4.23,0,0,0,.35,1.79A3.48,3.48,0,0,0,196.31,57.13Zm2.55-4.06a1.79,1.79,0,0,1,.47-.55,2.61,2.61,0,0,1,.71-.35,7,7,0,0,1,.82-.21l.88-.13.85-.13c.26-.05.52-.13.75-.19a1.7,1.7,0,0,0,.59-.34v1.38a6.23,6.23,0,0,1-.07.84,2.7,2.7,0,0,1-.35,1,2.5,2.5,0,0,1-.89.88,3.37,3.37,0,0,1-1.69.36,4.8,4.8,0,0,1-.85-.08,2,2,0,0,1-.73-.27,1.42,1.42,0,0,1-.49-.54,1.7,1.7,0,0,1-.19-.83A1.85,1.85,0,0,1,198.86,53.07Z"/><path class="cls-2" d="M214.84,58.09a11.39,11.39,0,0,0,2.26-.22,5.65,5.65,0,0,0,2-.76A4.1,4.1,0,0,0,221,53.43a3.1,3.1,0,0,0-.36-1.56,3,3,0,0,0-1-1.07,5.46,5.46,0,0,0-1.36-.7c-.52-.16-1-.31-1.58-.42s-1-.25-1.53-.35a12.83,12.83,0,0,1-1.34-.35,2.93,2.93,0,0,1-.95-.5,1,1,0,0,1-.37-.82.94.94,0,0,1,.22-.66,1.28,1.28,0,0,1,.49-.37,2.87,2.87,0,0,1,.67-.18c.25,0,.47,0,.68,0a3.57,3.57,0,0,1,1.71.39,1.57,1.57,0,0,1,.81,1.43h3.51a4.15,4.15,0,0,0-2-3.38,6.12,6.12,0,0,0-1.84-.7,10.49,10.49,0,0,0-2.11-.2,11.51,11.51,0,0,0-2.14.19,6,6,0,0,0-1.87.67,3.69,3.69,0,0,0-1.34,1.32,4,4,0,0,0-.51,2.14,3,3,0,0,0,.36,1.49,3.22,3.22,0,0,0,1,1,5.43,5.43,0,0,0,1.37.65c.5.17,1,.31,1.56.44a21.76,21.76,0,0,1,3.09.82c.74.29,1.1.7,1.1,1.25a1.36,1.36,0,0,1-.23.83,1.92,1.92,0,0,1-.58.52,2.85,2.85,0,0,1-.79.28,4.67,4.67,0,0,1-.81.09,4.11,4.11,0,0,1-1.06-.13,2.88,2.88,0,0,1-.89-.4,2,2,0,0,1-.64-.71,2,2,0,0,1-.25-1h-3.51a4.54,4.54,0,0,0,.61,2.25,4.47,4.47,0,0,0,1.43,1.44,6.27,6.27,0,0,0,2,.78A11.6,11.6,0,0,0,214.84,58.09Z"/><path class="cls-2" d="M222.83,54.71a3.39,3.39,0,0,0,.34,1.64,2.43,2.43,0,0,0,.92,1,3.77,3.77,0,0,0,1.36.46,11.75,11.75,0,0,0,1.61.11l1.13,0a9.79,9.79,0,0,0,1-.11V54.9l-.55.08h-.6a1.25,1.25,0,0,1-1.56-1.56V46.79h2.71V44.31h-2.71v-4h-3.69v4H220.6v2.48h2.23Z"/><path class="cls-2" d="M229.53,53.91a6.46,6.46,0,0,0,1.36,2.23,6,6,0,0,0,2.16,1.45,7.83,7.83,0,0,0,2.86.5,7.15,7.15,0,0,0,3.9-1,6.23,6.23,0,0,0,2.39-3.46H239a2.4,2.4,0,0,1-1,1.17,3.76,3.76,0,0,1-4.32-.24,3.74,3.74,0,0,1-.91-2.6h9.7a9.57,9.57,0,0,0-.26-3A7.16,7.16,0,0,0,241,46.4a6,6,0,0,0-2.09-1.79,6.4,6.4,0,0,0-3-.66,7.06,7.06,0,0,0-2.8.54,6.49,6.49,0,0,0-2.17,1.5,6.79,6.79,0,0,0-1.4,2.24,8.14,8.14,0,0,0-.49,2.81A8,8,0,0,0,229.53,53.91Zm3.37-5.2a2.63,2.63,0,0,1,.5-.93,2.72,2.72,0,0,1,.94-.75,3.19,3.19,0,0,1,1.46-.3,2.57,2.57,0,0,1,2,.73,4.38,4.38,0,0,1,.93,2.14h-6A3.9,3.9,0,0,1,232.9,48.71Z"/><path class="cls-2" d="M247,51.7a7.66,7.66,0,0,1,.17-1.7,3.9,3.9,0,0,1,.62-1.37,3.11,3.11,0,0,1,1.13-.91,4,4,0,0,1,1.71-.34,5.74,5.74,0,0,1,.71,0,4.36,4.36,0,0,1,.62.09V44.09a2.81,2.81,0,0,0-.8-.14,4.44,4.44,0,0,0-1.36.2,5.5,5.5,0,0,0-1.22.59,4.37,4.37,0,0,0-1,.91,4.82,4.82,0,0,0-.71,1.16h0v-2.5h-3.52V57.75H247Z"/><path class="cls-2" d="M257.33,45.32A1.62,1.62,0,1,0,259,43.69,1.63,1.63,0,0,0,257.33,45.32Z"/><path class="cls-2" d="M267.87,43.69a1.63,1.63,0,1,0,1.62,1.63A1.62,1.62,0,0,0,267.87,43.69Z"/><path class="cls-2" d="M254.39,39.34a1.63,1.63,0,1,0-1.63-1.62A1.62,1.62,0,0,0,254.39,39.34Z"/><path class="cls-2" d="M254.39,54.75A1.63,1.63,0,0,0,256,53.12a1.63,1.63,0,0,0-3.25,0A1.64,1.64,0,0,0,254.39,54.75Z"/><path class="cls-2" d="M257.55,43.65s.18,0,.33-.09.24-.22.21-.27-.17,0-.32.09S257.52,43.6,257.55,43.65Z"/><path class="cls-2" d="M257,43s.21,0,.44-.18.37-.27.34-.31-.25,0-.46.13S257,42.92,257,43Z"/><path class="cls-2" d="M256.4,42.27s.27-.07.55-.24.51-.33.48-.38-.31,0-.59.18S256.37,42.22,256.4,42.27Z"/><path class="cls-2" d="M255.83,41.59s.31-.12.65-.33.65-.38.61-.45-.37,0-.72.25S255.8,41.52,255.83,41.59Z"/><path class="cls-2" d="M255.26,40.89c0,.06.34-.14.76-.39s.77-.45.74-.5-.44,0-.85.27S255.23,40.83,255.26,40.89Z"/><path class="cls-2" d="M254.68,40.2c0,.07.39-.19.88-.46s.9-.5.87-.57a1.63,1.63,0,0,0-1,.34C255,39.79,254.65,40.14,254.68,40.2Z"/><path class="cls-2" d="M258.12,47.55s-.06-.17-.2-.26-.28-.12-.31-.07.06.16.2.25S258.09,47.59,258.12,47.55Z"/><path class="cls-2" d="M257.77,48.36s-.13-.18-.33-.31-.39-.21-.42-.15.1.2.3.33S257.74,48.4,257.77,48.36Z"/><path class="cls-2" d="M257.42,49.17c0-.06-.19-.19-.47-.36s-.5-.29-.53-.24.14.27.42.42S257.39,49.22,257.42,49.17Z"/><path class="cls-2" d="M257.07,50c0-.07-.26-.21-.6-.41s-.61-.39-.64-.33.18.31.52.52S257,50,257.07,50Z"/><path class="cls-2" d="M256.72,50.8s-.32-.21-.74-.45-.72-.49-.75-.43.22.36.63.61A1.49,1.49,0,0,0,256.72,50.8Z"/><path class="cls-2" d="M254.62,50.59c0,.07.26.43.75.71s1,.38,1,.31a5,5,0,0,0-.88-.5C255,50.83,254.66,50.53,254.62,50.59Z"/><path class="cls-2" d="M261.36,45.46c0-.17-.05-.3-.11-.3s-.1.13-.09.3,0,.28.09.28S261.36,45.61,261.36,45.46Z"/><path class="cls-2" d="M262.16,45.88c.06,0,.11-.19.11-.43s-.06-.43-.13-.43-.08.19-.08.43S262.09,45.88,262.16,45.88Z"/><path class="cls-2" d="M263,46c.06,0,.13-.24.13-.57s-.09-.58-.16-.58-.07.26-.06.58S263,46,263,46Z"/><path class="cls-2" d="M263.91,46.15c.07,0,.16-.32.15-.72s-.11-.72-.17-.72-.06.32-.05.72S263.85,46.15,263.91,46.15Z"/><path class="cls-2" d="M264.8,46.3c.07,0,.18-.39.17-.87a1.41,1.41,0,0,0-.2-.86c-.08,0,0,.37,0,.86S264.73,46.31,264.8,46.3Z"/><path class="cls-2" d="M265.69,46.44a1.72,1.72,0,0,0,.18-1c0-.23-.09-1-.23-1s0,.45,0,1S265.62,46.44,265.69,46.44Z"/><path class="cls-2" d="M81.92,120.25c-12.81,0-22.84-20.83-22.84-47.42A85.38,85.38,0,0,1,63.8,43.66L68,45.21C65.16,53,63.58,62.78,63.58,72.83c0,23.27,8.4,42.92,18.34,42.92s18.33-19.65,18.33-42.92-8.4-42.91-18.33-42.91A8.57,8.57,0,0,0,77,31.57L74.5,27.86a13,13,0,0,1,7.42-2.44c12.8,0,22.83,20.82,22.83,47.41S94.72,120.25,81.92,120.25Z"/><path class="cls-2" d="M106.39,104.25a45.08,45.08,0,0,1-4.8-.28C92,102.88,80.81,98.78,70.18,92.42c-22.81-13.66-35.52-33-28.94-43.95,3.3-5.52,10.77-7.92,21-6.77,9.63,1.08,20.78,5.18,31.4,11.54a86.61,86.61,0,0,1,22,18.34l-3.46,2.87A82.31,82.31,0,0,0,91.34,57.1c-10.08-6-20.59-9.91-29.6-10.93-8.26-.93-14.33.75-16.64,4.61C40,59.31,52.54,76.61,72.5,88.56c10.08,6,20.59,9.92,29.59,10.93,8.27.94,14.33-.75,16.65-4.61a9.25,9.25,0,0,0,.93-6.36l4.44-.73a13.57,13.57,0,0,1-1.51,9.41C119.83,101.81,114.16,104.25,106.39,104.25Z"/><path class="cls-2" d="M57.62,104c-7.78,0-13.79-2.36-16.62-7.19a13.43,13.43,0,0,1-1.47-9.1l4.44.69a9.17,9.17,0,0,0,.91,6.13c5,8.58,26.23,5.89,46.3-5.87S124,59.72,119,51.14,92.72,45.26,72.65,57A83,83,0,0,0,51.9,73.8l-3.41-2.93A87.21,87.21,0,0,1,70.38,53.13c22.94-13.44,46-15.31,52.45-4.26S116.4,79.1,93.46,92.54C80.55,100.09,67.62,104,57.62,104Z"/><path class="cls-2" d="M71.9,39.75a6.59,6.59,0,1,1,6.58-6.58A6.59,6.59,0,0,1,71.9,39.75Zm0-8.67A2.09,2.09,0,1,0,74,33.17,2.1,2.1,0,0,0,71.9,31.08Z"/><path class="cls-2" d="M42.9,90.42a6.59,6.59,0,1,1,6.58-6.59A6.6,6.6,0,0,1,42.9,90.42Zm0-8.67A2.09,2.09,0,1,0,45,83.83,2.09,2.09,0,0,0,42.9,81.75Z"/><path class="cls-2" d="M120.9,90.42a6.59,6.59,0,1,1,6.58-6.59A6.6,6.6,0,0,1,120.9,90.42Zm0-8.67A2.09,2.09,0,1,0,123,83.83,2.09,2.09,0,0,0,120.9,81.75Z"/><path class="cls-2" d="M92.24,81.33a2,2,0,0,1-2-2,6.37,6.37,0,0,0-5.38-6.25,2,2,0,0,1-1-3.51,4.92,4.92,0,0,0,1.64-3.78c0-2.52-1.64-4.56-3.64-4.56s-3.65,2-3.65,4.56a4.92,4.92,0,0,0,1.64,3.78,2,2,0,0,1-1,3.51,6.37,6.37,0,0,0-5.38,6.25,2,2,0,0,1-4,0,10.41,10.41,0,0,1,5.75-9.24,9.31,9.31,0,0,1-1-4.3c0-4.72,3.43-8.56,7.65-8.56s7.64,3.84,7.64,8.56a9.31,9.31,0,0,1-1,4.3,10.41,10.41,0,0,1,5.75,9.24A2,2,0,0,1,92.24,81.33Z"/></svg>