<?xml version="1.0" encoding="UTF-8" standalone="no"?>
<svg
   xmlns:dc="http://purl.org/dc/elements/1.1/"
   xmlns:cc="http://creativecommons.org/ns#"
   xmlns:rdf="http://www.w3.org/1999/02/22-rdf-syntax-ns#"
   xmlns:svg="http://www.w3.org/2000/svg"
   xmlns="http://www.w3.org/2000/svg"
   id="svg8"
   version="1.1"
   viewBox="0 0 441.63367 66.586807"
   height="66.586807mm"
   width="441.63367mm">
  <defs
     id="defs2" />
  <metadata
     id="metadata5">
    <rdf:RDF>
      <cc:Work
         rdf:about="">
        <dc:format>image/svg+xml</dc:format>
        <dc:type
           rdf:resource="http://purl.org/dc/dcmitype/StillImage" />
        <dc:title></dc:title>
      </cc:Work>
    </rdf:RDF>
  </metadata>
  <g
     transform="translate(-35.611656,-55.970884)"
     id="layer1">
    <g
       id="text817"
       style="font-style:normal;font-weight:normal;font-size:10.58333302px;line-height:1.25;font-family:sans-serif;letter-spacing:0px;word-spacing:0px;fill:#1976d2;fill-opacity:1;stroke:none;stroke-width:0.26458332"
       aria-label="talentdriver">
      <path
         id="path850"
         style="font-style:normal;font-variant:normal;font-weight:normal;font-stretch:normal;font-size:90.31111145px;font-family:Sawasdee;-inkscape-font-specification:Sawasdee;fill:#1976d2;fill-opacity:1;stroke-width:0.26458332"
         d="m 43.505059,121.80804 h -3.96875 V 81.018106 h -3.924653 v -3.924653 h 3.924653 V 66.51012 h 3.96875 v 10.583333 h 12.347222 l -1.322917,3.924653 H 43.505059 Z" />
      <path
         id="path852"
         style="font-style:normal;font-variant:normal;font-weight:normal;font-stretch:normal;font-size:90.31111145px;font-family:Sawasdee;-inkscape-font-specification:Sawasdee;fill:#1976d2;fill-opacity:1;stroke-width:0.26458332"
         d="m 94.172768,121.80804 h -4.233334 q -0.79375,-2.51354 -0.79375,-5.90903 v -3.48368 q -3.175,4.40972 -7.628819,7.27604 -4.409722,2.86632 -9.348611,2.86632 -3.571875,0 -6.394098,-1.10243 -2.778125,-1.14653 -4.409722,-2.99861 -1.631597,-1.85209 -2.469444,-3.92465 -0.837848,-2.11667 -0.837848,-4.27744 0,-2.24895 0.661459,-4.14513 0.705555,-1.89618 1.763889,-3.2191 1.10243,-1.36702 2.866319,-2.42535 1.807986,-1.102429 3.439583,-1.763888 1.675695,-0.705555 4.145139,-1.190625 2.469445,-0.529166 4.277431,-0.749653 1.807986,-0.264583 4.497917,-0.396875 2.68993,-0.132291 4.233333,-0.132291 1.5875,-0.0441 4.012847,-0.0441 h 1.190625 q -0.220486,-7.276042 -4.321528,-11.59757 -4.056944,-4.321528 -9.392708,-4.321528 -3.130903,0 -6.129514,1.631598 -2.954514,1.631597 -5.159375,4.7625 l -3.130903,-2.07257 q 2.689931,-4.145139 6.482292,-6.217708 3.792361,-2.07257 7.9375,-2.07257 3.351389,0 6.438195,1.367014 3.130902,1.322917 5.600347,3.792361 2.469444,2.425348 3.96875,6.261806 1.543403,3.836458 1.631597,8.466667 v 19.711459 q 0,3.83646 1.102431,5.90903 z m -22.004514,-3.175 q 5.07118,0 9.83368,-3.39549 4.7625,-3.39549 7.14375,-7.76111 v -8.466667 q -2.072569,0.0441 -3.48368,0.08819 -1.367014,0.0441 -3.792361,0.220486 -2.38125,0.132292 -4.056945,0.352778 -1.675694,0.176389 -3.924653,0.617359 -2.204861,0.44097 -3.748264,1.01424 -1.543402,0.52917 -3.219097,1.41111 -1.631597,0.83785 -2.645833,1.89618 -1.014236,1.01424 -1.675695,2.46944 -0.617361,1.45521 -0.617361,3.175 0,3.175 2.645834,5.77674 2.645833,2.60174 7.540625,2.60174 z" />
      <path
         id="path854"
         style="font-style:normal;font-variant:normal;font-weight:normal;font-stretch:normal;font-size:90.31111145px;font-family:Sawasdee;-inkscape-font-specification:Sawasdee;fill:#1976d2;fill-opacity:1;stroke-width:0.26458332"
         d="m 111.72347,121.80804 h -3.96875 V 55.970884 h 3.96875 z" />
      <path
         id="path856"
         style="font-style:normal;font-variant:normal;font-weight:normal;font-stretch:normal;font-size:90.31111145px;font-family:Sawasdee;-inkscape-font-specification:Sawasdee;fill:#1976d2;fill-opacity:1;stroke-width:0.26458332"
         d="m 128.74499,95.658384 h 32.49965 q -1.23472,-6.658681 -5.82083,-10.980208 -4.58611,-4.321528 -10.49514,-4.321528 -5.86493,0 -10.45104,4.321528 -4.54202,4.321527 -5.73264,10.980208 z m 36.82118,3.748264 h -37.43854 q 0,7.893402 4.93889,13.405552 4.93889,5.51216 11.68576,5.51216 4.45382,0 8.73125,-2.38125 4.27743,-2.38125 6.52639,-6.3941 l 3.48368,1.98437 q -2.68993,4.8066 -7.9375,7.89341 -5.24757,3.04271 -10.80382,3.04271 -5.60035,0 -10.31875,-3.13091 -4.6743,-3.1309 -7.36423,-8.42257 -2.64584,-5.33576 -2.64584,-11.509372 0,-6.129514 2.68993,-11.421181 2.73403,-5.291666 7.45243,-8.422569 4.7625,-3.175 10.36285,-3.175 5.29167,0 9.83368,2.866319 4.58611,2.822222 7.40833,7.62882 2.82223,4.806597 3.3073,10.539236 z" />
      <path
         id="path858"
         style="font-style:normal;font-variant:normal;font-weight:normal;font-stretch:normal;font-size:90.31111145px;font-family:Sawasdee;-inkscape-font-specification:Sawasdee;fill:#1976d2;fill-opacity:1;stroke-width:0.26458332"
         d="m 177.16374,77.093453 h 4.23333 q 0.83785,2.910417 0.83785,5.909028 v 6.702778 q 2.42534,-5.512153 6.70278,-9.392708 4.32152,-3.924653 8.37847,-3.924653 4.49791,0 7.58472,2.513541 3.1309,2.513542 4.49792,6.438195 1.41111,3.924653 1.41111,8.863542 v 27.604864 h -3.88056 V 94.203176 q 0,-2.425348 -0.48507,-4.674306 -0.44097,-2.248958 -1.45521,-4.409722 -1.01423,-2.160764 -3.0427,-3.439584 -1.98438,-1.322916 -4.71841,-1.322916 -2.60173,0 -5.42396,2.028472 -2.77812,2.028472 -4.85069,4.982986 -2.02847,2.910417 -3.39549,6.217708 -1.32291,3.307292 -1.32291,5.820834 v 22.401392 h -3.96875 V 83.002481 q 0,-3.792361 -1.10243,-5.909028 z" />
      <path
         id="path860"
         style="font-style:normal;font-variant:normal;font-weight:normal;font-stretch:normal;font-size:90.31111145px;font-family:Sawasdee;-inkscape-font-specification:Sawasdee;fill:#1976d2;fill-opacity:1;stroke-width:0.26458332"
         d="M 229.46305,121.80804 H 225.4943 V 81.018106 h -3.92465 v -3.924653 h 3.92465 V 66.51012 h 3.96875 v 10.583333 h 12.34722 l -1.32291,3.924653 h -11.02431 z" />
      <path
         id="path862"
         style="font-style:normal;font-variant:normal;font-weight:bold;font-stretch:normal;font-size:90.31111145px;font-family:Sawasdee;-inkscape-font-specification:'Sawasdee Bold';fill:#1976d2;fill-opacity:1"
         d="m 291.94881,121.80804 h -7.80521 q -1.19063,-3.83646 -1.19063,-6.79098 -2.82222,3.2632 -6.83507,5.33577 -3.96875,2.02847 -7.8493,2.02847 -5.99722,0 -10.98021,-3.1309 -4.98299,-3.1309 -7.80521,-8.37847 -2.77812,-5.29167 -2.77812,-11.465282 0,-6.129514 2.77812,-11.377084 2.82222,-5.291666 7.80521,-8.466666 4.98299,-3.175 10.98021,-3.175 3.83646,0 7.8493,2.028472 4.05695,2.028472 6.83507,5.247569 V 56.059078 h 7.01146 v 52.652082 q 0,3.2632 0.57327,7.45243 0.57326,4.14514 1.41111,5.64445 z m -8.99584,-22.401392 q 0,-6.83507 -4.40972,-11.59757 -4.36562,-4.806597 -10.27465,-4.806597 -5.90903,0 -10.36285,4.806597 -4.40972,4.7625 -4.40972,11.59757 0,6.835072 4.40972,11.597572 4.45382,4.7625 10.36285,4.7625 5.90903,0 10.27465,-4.71841 4.40972,-4.7625 4.40972,-11.641662 z" />
      <path
         id="path864"
         style="font-style:normal;font-variant:normal;font-weight:bold;font-stretch:normal;font-size:90.31111145px;font-family:Sawasdee;-inkscape-font-specification:'Sawasdee Bold';fill:#1976d2;fill-opacity:1"
         d="m 309.32312,83.663939 q 4.7184,-5.291666 10.80382,-7.45243 l 8.77534,6.129514 q -3.79236,0 -6.87916,0.79375 -3.08681,0.749653 -5.07118,1.940278 -1.98438,1.146527 -3.48369,2.778125 -1.4993,1.631597 -2.24895,3.130902 -0.74966,1.499306 -1.23473,3.219098 -0.44097,1.675694 -0.57326,2.68993 -0.0882,1.014236 -0.0882,1.940278 v 22.974656 h -6.87917 V 90.234426 q 0,-3.307292 -0.61736,-7.496528 -0.57327,-4.189236 -1.36702,-5.732639 h 7.71702 q 1.14653,3.130903 1.14653,6.65868 z" />
      <path
         id="path866"
         style="font-style:normal;font-variant:normal;font-weight:bold;font-stretch:normal;font-size:90.31111145px;font-family:Sawasdee;-inkscape-font-specification:'Sawasdee Bold';fill:#1976d2;fill-opacity:1"
         d="m 338.42729,62.497273 q 2.07257,0 3.52778,1.411111 1.49931,1.411111 1.49931,3.439583 0,1.984375 -1.49931,3.351389 -1.45521,1.367014 -3.52778,1.367014 -2.16076,0 -3.61597,-1.367014 -1.45521,-1.367014 -1.45521,-3.351389 0,-2.028472 1.45521,-3.439583 1.49931,-1.411111 3.61597,-1.411111 z m 3.39549,59.310767 h -6.96736 V 77.093453 h 6.96736 z" />
      <path
         id="path868"
         style="font-style:normal;font-variant:normal;font-weight:bold;font-stretch:normal;font-size:90.31111145px;font-family:Sawasdee;-inkscape-font-specification:'Sawasdee Bold';fill:#1976d2;fill-opacity:1"
         d="m 348.96652,77.005259 h 7.49653 l 13.71423,28.310421 13.75834,-28.310421 h 7.54062 L 370.35367,122.4695 Z" />
      <path
         id="path870"
         style="font-style:normal;font-variant:normal;font-weight:bold;font-stretch:normal;font-size:90.31111145px;font-family:Sawasdee;-inkscape-font-specification:'Sawasdee Bold';fill:#1976d2;fill-opacity:1"
         d="m 404.35264,94.379564 h 28.00174 q -1.41111,-5.027083 -5.33576,-8.157986 -3.88056,-3.130902 -8.64306,-3.130902 -4.6743,0 -8.59896,3.130902 -3.88055,3.130903 -5.42396,8.157986 z m -0.79375,6.526386 q 0.52917,6.35 4.8066,10.58334 4.27743,4.18923 9.83368,4.18923 4.36563,0 8.11389,-2.20486 3.74826,-2.24896 6.3059,-6.57048 l 5.99723,3.21909 q -1.7198,3.04271 -4.01285,5.37986 -2.29306,2.29306 -4.45382,3.57188 -2.16076,1.27882 -4.54201,2.07257 -2.38125,0.79375 -4.10105,1.01423 -1.67569,0.22049 -3.30729,0.22049 -5.99722,0 -10.98021,-3.1309 -4.98298,-3.1309 -7.80521,-8.37847 -2.77812,-5.29167 -2.77812,-11.465282 0,-6.129514 2.86632,-11.377084 2.86632,-5.291666 7.8934,-8.466666 5.02709,-3.175 10.98021,-3.175 5.68854,0 10.49514,2.866319 4.8066,2.86632 7.71701,7.717014 2.91042,4.806597 3.39549,10.539236 l 0.17639,3.395483 z" />
      <path
         id="path872"
         style="font-style:normal;font-variant:normal;font-weight:bold;font-stretch:normal;font-size:90.31111145px;font-family:Sawasdee;-inkscape-font-specification:'Sawasdee Bold';fill:#1976d2;fill-opacity:1"
         d="m 457.66616,83.663939 q 4.71841,-5.291666 10.80382,-7.45243 l 8.77535,6.129514 q -3.79236,0 -6.87917,0.79375 -3.0868,0.749653 -5.07118,1.940278 -1.98437,1.146527 -3.48368,2.778125 -1.4993,1.631597 -2.24896,3.130902 -0.74965,1.499306 -1.23472,3.219098 -0.44097,1.675694 -0.57326,2.68993 -0.0882,1.014236 -0.0882,1.940278 V 121.80804 H 450.787 V 90.234426 q 0,-3.307292 -0.61736,-7.496528 -0.57327,-4.189236 -1.36702,-5.732639 h 7.71702 q 1.14652,3.130903 1.14652,6.65868 z" />
    </g>
  </g>
</svg>
